<?xml version="1.0" standalone="no"?>
<!DOCTYPE svg PUBLIC "-//W3C//DTD SVG 20010904//EN"
 "http://www.w3.org/TR/2001/REC-SVG-20010904/DTD/svg10.dtd">
<svg version="1.0" xmlns="http://www.w3.org/2000/svg"
 width="536.000000pt" height="536.000000pt" viewBox="0 0 536.000000 536.000000"
 preserveAspectRatio="xMidYMid meet">
<metadata>
Created by potrace 1.11, written by Peter Selinger 2001-2013
</metadata>
<g transform="translate(0.000000,536.000000) scale(0.100000,-0.100000)"
fill="#000000" stroke="none">
<path d="M2587 5354 c-1 -1 -47 -4 -102 -8 -55 -4 -116 -9 -135 -12 -43 -6
-186 -32 -220 -40 -14 -3 -38 -8 -54 -10 -56 -11 -261 -76 -360 -116 -247 -98
-470 -228 -686 -399 -98 -77 -115 -95 -123 -128 -10 -39 6 -62 133 -189 152
-152 157 -154 270 -61 186 153 426 288 655 369 411 144 849 165 1270 59 602
-152 1113 -555 1408 -1109 106 -200 183 -426 222 -650 2 -14 7 -40 10 -58 7
-44 24 -69 55 -82 14 -5 98 -9 197 -7 166 2 173 3 194 25 24 27 30 64 18 125
-4 23 -10 62 -14 87 -15 103 -93 394 -125 465 -5 11 -25 61 -45 110 -226 561
-709 1075 -1270 1350 -264 130 -563 224 -790 250 -27 3 -59 8 -70 10 -52 11
-428 28 -438 19z"/>
<path d="M680 4423 c-33 -10 -205 -245 -298 -409 -248 -435 -362 -889 -348
-1384 6 -216 8 -243 31 -380 29 -165 55 -269 107 -418 74 -216 177 -425 295
-601 l65 -96 -27 -125 c-15 -69 -28 -132 -30 -140 -2 -8 -42 -190 -90 -405
-48 -215 -87 -392 -88 -395 -4 -18 18 -53 38 -60 19 -7 69 11 262 96 131 57
247 109 258 114 11 5 116 52 234 104 l213 93 62 -37 c77 -47 201 -109 286
-144 36 -15 79 -33 95 -41 109 -48 428 -131 580 -151 28 -3 59 -8 69 -10 26
-5 249 -17 311 -17 62 0 264 12 291 17 11 2 47 7 79 11 127 15 291 54 466 111
101 33 148 60 150 87 0 7 2 20 4 29 3 14 -56 145 -133 297 -10 19 -31 39 -49
47 -31 14 -38 13 -78 -2 -11 -4 -22 -8 -25 -9 -3 -1 -36 -11 -75 -23 -128 -39
-285 -71 -430 -87 -58 -7 -330 -7 -395 -1 -431 42 -798 184 -1145 445 -121 92
-318 286 -403 399 -197 260 -324 519 -396 807 -26 104 -29 117 -45 225 -28
186 -31 477 -5 605 3 11 7 40 10 65 9 78 65 291 106 400 77 209 200 429 333
599 78 99 71 118 -106 289 -108 103 -124 112 -179 95z"/>
<path d="M4906 2437 c-16 -16 -27 -45 -35 -88 -6 -35 -13 -77 -16 -94 -3 -16
-19 -80 -35 -141 -109 -411 -360 -811 -681 -1084 -35 -30 -66 -57 -69 -60 -8
-8 -153 -113 -175 -127 -11 -7 -40 -24 -65 -39 -56 -33 -79 -61 -80 -96 0 -41
143 -334 170 -348 36 -19 81 -5 179 55 244 151 467 347 675 595 80 95 209 290
278 420 132 248 243 573 274 805 3 22 9 56 13 76 13 57 4 102 -25 127 -24 21
-33 22 -205 22 -175 0 -181 -1 -203 -23z"/>
</g>
</svg>
